<svg version="1.1" viewBox="0.0 0.0 1500.0 150.0" fill="none" stroke="none" stroke-linecap="square" stroke-miterlimit="10" xmlns:xlink="http://www.w3.org/1999/xlink" xmlns="http://www.w3.org/2000/svg"><clipPath id="p.0"><path d="m0 0l1500.0 0l0 150.0l-1500.0 0l0 -150.0z" clip-rule="nonzero"/></clipPath><g clip-path="url(#p.0)"><path fill="#000000" fill-opacity="0.0" d="m0 0l1500.0 0l0 150.0l-1500.0 0z" fill-rule="evenodd"/><path fill="#904da6" d="m0 0l1500.0 0l0 150.01575l-1500.0 0z" fill-rule="evenodd"/><path fill="#ee9999" d="m522.73895 68.45385l4.4573364 9.75164l-8.911499 0l4.4541626 -9.75164zm-7.4941406 -12.803143l-20.109772 38.694897l15.777618 0l3.0820312 -6.7475433l17.494812 0l3.0842285 6.7475433l16.034363 0l-20.109802 -38.694897zm-39.10373 -0.88167953c-3.679657 0 -7.084778 0.48882294 -10.215332 1.466465c-3.1305542 0.9776459 -5.847534 2.3691368 -8.150879 4.1744804c-2.2962341 1.8053436 -4.0825806 3.9435654 -5.3590393 6.414665c-1.2693481 2.4650955 -1.9040222 5.1911087 -1.9040222 8.178017c0 2.9809113 0.6346741 5.7069244 1.9040222 8.178017c1.2764587 2.4710999 3.0628052 4.6093216 5.3590393 6.414665c2.3033447 1.8053436 5.0203247 3.1968307 8.150879 4.1744766c3.1305542 0.97164917 6.535675 1.4574738 10.215332 1.4574738c4.5140076 0 8.510986 -0.67176056 11.990997 -2.0152664c3.4871216 -1.3435135 6.371643 -3.2508163 8.6536255 -5.721916l-9.798187 -7.350319c-1.3548889 1.4394684 -2.856018 2.555069 -4.503296 3.3467789c-1.6401672 0.7917099 -3.4906921 1.1875687 -5.5515747 1.1875687c-1.6187744 0 -3.087799 -0.22192383 -4.4070435 -0.66576385c-1.3121338 -0.44384003 -2.4388428 -1.0886002 -3.3801575 -1.9342957c-0.9413147 -0.84568787 -1.6758118 -1.8683167 -2.2035217 -3.0678787c-0.52770996 -1.1995621 -0.79156494 -2.5340729 -0.79156494 -4.00354c0 -1.4754639 0.26385498 -2.812973 0.79156494 -4.012535c0.52770996 -1.1995621 1.262207 -2.2221909 2.2035217 -3.0678864c0.9413147 -0.84568787 2.0680237 -1.4904556 3.3801575 -1.9342957c1.3192749 -0.4438324 2.788269 -0.6657562 4.4070435 -0.6657562c2.0608826 0 3.9114075 0.39885712 5.5515747 1.1965637c1.6472778 0.7917099 3.148407 1.9043045 4.503296 3.3377838l9.798187 -7.350319c-2.2819824 -2.5070877 -5.166504 -4.4233894 -8.6536255 -5.748905c-3.480011 -1.3255196 -7.4769897 -1.9882774 -11.990997 -1.9882774z" fill-rule="evenodd"/><path fill="#ee9999" d="m574.26984 65.709045c2.1464844 0 3.7331543 0.40784454 4.76001 1.2235489c1.0268555 0.80970764 1.5403442 1.9133072 1.5403442 3.3107986c0 1.4034882 -0.51348877 2.5100784 -1.5403442 3.319786c-1.0268555 0.80970764 -2.6135254 1.2145615 -4.76001 1.2145615l-5.6585693 0l0 -9.068695zm-21.168762 -10.058338l0 38.694897l15.510193 0l0 -9.725456l4.234009 0l7.7997437 9.725456l16.558533 0l-9.650513 -11.898033l0 0c2.573059 -1.1115646 4.60614 -2.6065674 6.099182 -4.484993c1.7114868 -2.1592178 2.5671997 -4.732277 2.5671997 -7.719185c0 -4.492363 -1.8433838 -8.04607 -5.5301514 -10.661118c-3.6796875 -2.6210442 -9.045898 -3.9315681 -16.098572 -3.9315681z" fill-rule="evenodd"/><path fill="#ee9999" d="m624.53656 64.773384c1.7542725 0 3.0378418 0.23991394 3.85083 0.7197342c0.81292725 0.47982788 1.2194214 1.1965637 1.2194214 2.1502151c0 0.9236679 -0.40649414 1.634407 -1.2194214 2.132225c-0.8129883 0.497818 -2.0965576 0.746727 -3.85083 0.746727l-7.220276 0l0 -5.7489014zm2.1072388 14.36776c1.7114868 0 2.991516 0.25790405 3.840149 0.7737198c0.8557129 0.51581573 1.2835693 1.2715378 1.2835693 2.2671738c0 0.995636 -0.42785645 1.751358 -1.2835693 2.2671738c-0.8486328 0.51581573 -2.128662 0.7737198 -3.840149 0.7737198l-9.327515 0l0 -6.081787zm-24.580994 -23.490437l0 38.694897l25.896667 0c6.353882 0 11.185181 -0.93865967 14.494019 -2.8159714c3.308899 -1.883316 4.963318 -4.5013657 4.963318 -7.854141c0 -2.249176 -0.71313477 -4.1744766 -2.1393433 -5.775894c-1.4262695 -1.6014175 -3.444336 -2.8249664 -6.0543213 -3.670662c-0.10614014 -0.034713745 -0.21307373 -0.06871796 -0.32080078 -0.10202789l0 0c1.8630981 -0.8260269 3.3284912 -1.8716202 4.39624 -3.1367874c1.2978516 -1.5294418 1.9467773 -3.268814 1.9467773 -5.2181015c0 -2.950924 -1.5117798 -5.3740387 -4.5354004 -7.269352c-3.0236206 -1.9013062 -7.7123413 -2.8519592 -14.066162 -2.8519592z" fill-rule="evenodd"/><path fill="#ee9999" d="m676.9858 65.32218c1.4476318 0 2.7954102 0.22192383 4.043335 0.6657562c1.2479248 0.44384003 2.3425903 1.0796051 3.2838745 1.9073105c0.9413452 0.82769775 1.6758423 1.8413239 2.2035522 3.040886c0.52770996 1.1995621 0.7915039 2.555069 0.7915039 4.0665207c0 1.5114517 -0.26379395 2.8669586 -0.7915039 4.0665207c-0.52770996 1.1935577 -1.262207 2.204193 -2.2035522 3.0318909c-0.9412842 0.82769775 -2.0359497 1.4634628 -3.2838745 1.9073029c-1.2479248 0.44384003 -2.5957031 0.66576385 -4.043335 0.66576385c-1.4476318 0 -2.7954102 -0.22192383 -4.043335 -0.66576385c-1.2479858 -0.44384003 -2.3425903 -1.0796051 -3.2839355 -1.9073029c-0.9412842 -0.82769775 -1.6757812 -1.8383331 -2.2034912 -3.0318909c-0.52770996 -1.1995621 -0.79156494 -2.555069 -0.79156494 -4.0665207c0 -1.5114517 0.26385498 -2.8669586 0.79156494 -4.0665207c0.52770996 -1.1995621 1.262207 -2.2131882 2.2034912 -3.040886c0.9413452 -0.8277054 2.0359497 -1.4634705 3.2839355 -1.9073105c1.2479248 -0.4438324 2.5957031 -0.6657562 4.043335 -0.6657562zm0 -10.553154c-3.7224731 0 -7.17395 0.4978218 -10.354431 1.4934578c-3.1733398 0.995636 -5.9223633 2.4051208 -8.247131 4.2284584c-2.317627 1.8233376 -4.125366 3.9615555 -5.423218 6.414665c-1.2907715 2.4471054 -1.9360962 5.146118 -1.9360962 8.097046c0 2.9089355 0.6453247 5.598961 1.9360962 8.070061c1.2978516 2.4651031 3.1055908 4.6123123 5.423218 6.4416504c2.324768 1.8233337 5.0737915 3.2328186 8.247131 4.228462c3.180481 0.9896393 6.6533813 1.4844589 10.418579 1.4844589c3.7224731 0 7.159668 -0.49481964 10.3116455 -1.4844589c3.1590576 -0.995636 5.8974 -2.4051208 8.215027 -4.228462c2.324768 -1.8293381 4.1325073 -3.9765472 5.423218 -6.4416504c1.2979126 -2.4710999 1.9468384 -5.1611176 1.9468384 -8.070061c0 -2.9509277 -0.6489258 -5.6499405 -1.9468384 -8.097046c-1.2907104 -2.4531097 -3.0984497 -4.5913315 -5.423218 -6.414665c-2.317627 -1.8233337 -5.055969 -3.2328224 -8.215027 -4.2284584c-3.1519775 -0.995636 -6.6105957 -1.4934578 -10.375793 -1.4934578z" fill-rule="evenodd"/><path fill="#ee9999" d="m708.59564 55.650707l0 38.694897l15.114441 0l0 -17.59375l17.489075 17.59375l12.750488 0l0 -38.694897l-15.125122 0l0 17.597752l-17.478394 -17.597752z" fill-rule="evenodd"/><path fill="#ee9999" d="m857.38745 68.45385l4.4573364 9.75164l-8.911499 0l4.4541626 -9.75164zm-54.222656 -2.6278534c2.1964111 0 4.114685 0.35087585 5.754822 1.0526199c1.6401978 0.6957474 2.920227 1.7273712 3.840149 3.0948715c0.9199219 1.3615036 1.3798828 3.0378876 1.3798828 5.029167c0 1.9492874 -0.45996094 3.616684 -1.3798828 5.0021744c-0.9199219 1.3795013 -2.1999512 2.4201202 -3.840149 3.1218643c-1.6401367 0.7017441 -3.5584106 1.0526199 -5.754822 1.0526199l-6.50354 0l0 -18.353317zm-22.013794 -10.175289l0 38.694897l22.677002 0c5.1273193 0 9.637756 -0.78271484 13.531311 -2.3481445c3.9007568 -1.5654297 6.9457397 -3.7936172 9.13501 -6.6845627c2.19635 -2.8969421 3.2945557 -6.3336945 3.2945557 -10.310242c0 -4.0185394 -1.0982056 -7.464279 -3.2945557 -10.3372345c-2.18927 -2.8789482 -5.234253 -5.101139 -9.13501 -6.6665688c-3.8935547 -1.5654297 -8.403992 -2.3481445 -13.531311 -2.3481445zm68.74231 0l-20.109802 38.694897l15.777649 0l3.0819702 -6.7475433l17.494873 0l3.0842285 6.7475433l16.034363 0l-20.109802 -38.694897zm32.07959 0l0 10.121311l13.467163 0l0 28.573586l15.510193 0l0 -28.573586l13.477844 0l0 -10.121311z" fill-rule="evenodd"/><path fill="#ee9999" d="m928.4305 55.650707l0 38.694897l15.510193 0l0 -38.694897z" fill-rule="evenodd"/><path fill="#ee9999" d="m951.4326 55.650707l0 38.694897l15.114441 0l0 -17.59375l17.489075 17.59375l12.750488 0l0 -38.694897l-15.125122 0l0 17.597752l-17.478394 -17.597752z" fill-rule="evenodd"/><path fill="#ee9999" d="m1028.457 54.769028c-3.8079834 0 -7.302246 0.48882294 -10.482727 1.466465c-3.1733398 0.9776459 -5.9223633 2.3691368 -8.247131 4.1744804c-2.317627 1.8053436 -4.114685 3.9435654 -5.3911133 6.414665c-1.2693481 2.4650955 -1.9040527 5.1911087 -1.9040527 8.178017c0 2.9809113 0.6347046 5.7069244 1.9040527 8.178017c1.2764282 2.4710999 3.0628052 4.6093216 5.359009 6.414665c2.3033447 1.8053436 5.0203247 3.1968307 8.150879 4.1744766c3.1305542 0.97164917 6.557129 1.4574738 10.279541 1.4574738c3.380127 0 6.8636475 -0.42285156 10.450684 -1.2685394c3.5941162 -0.8456955 6.7923584 -2.0632477 9.594849 -3.6526718l0 -16.356041l-13.467041 0l0 9.806732l0 0c-0.17956543 0.060928345 -0.3577881 0.11781311 -0.5349121 0.17063141c-1.661499 0.49782562 -3.3693848 0.7467346 -5.123657 0.7467346c-1.6616211 0 -3.1627197 -0.23091888 -4.503296 -0.692749c-1.3335571 -0.46183777 -2.4816284 -1.115593 -3.444336 -1.9612885c-0.9627075 -0.84568787 -1.7079468 -1.8683167 -2.2356567 -3.0678787c-0.52770996 -1.1995621 -0.7915039 -2.5160828 -0.7915039 -3.949562c0 -1.5114517 0.26379395 -2.857956 0.7915039 -4.039528c0.52770996 -1.181572 1.2729492 -2.195198 2.2356567 -3.0408936c0.9627075 -0.84568787 2.1322021 -1.4904556 3.508545 -1.9342957c1.3834229 -0.4438324 2.9307861 -0.6657562 4.642334 -0.6657562c2.060913 0 3.9327393 0.3598709 5.6157227 1.0796051c1.6900635 0.7197418 3.2589111 1.7783585 4.706543 3.1758423l9.915894 -7.350319c-2.317627 -2.3931274 -5.2628174 -4.234455 -8.835449 -5.523987c-3.572754 -1.2895317 -7.637451 -1.9342957 -12.194336 -1.9342957z" fill-rule="evenodd"/><path fill="#ee9999" d="m1437.909 72.36404l6.772461 -5.864601l6.772461 0l-13.544922 11.729195z" fill-rule="evenodd"/><path stroke="#ee9999" stroke-width="1.0" stroke-linejoin="round" stroke-linecap="butt" d="m1437.909 72.36404l6.772461 -5.864601l6.772461 0l-13.544922 11.729195z" fill-rule="evenodd"/><path fill="#ee9999" d="m1437.909 72.36404l-6.772461 -5.864601l-6.772461 0l13.544922 11.729195z" fill-rule="evenodd"/><path stroke="#ee9999" stroke-width="1.0" stroke-linejoin="round" stroke-linecap="butt" d="m1437.909 72.36404l-6.772461 -5.864601l-6.772461 0l13.544922 11.729195z" fill-rule="evenodd"/><path fill="#ee9999" d="m1461.6968 57.192318l-29.621948 9.307117l-7.7088623 0l37.33081 -11.729198z" fill-rule="evenodd"/><path stroke="#ee9999" stroke-width="1.0" stroke-linejoin="round" stroke-linecap="butt" d="m1461.6968 57.192318l-29.621948 9.307117l-7.7088623 0l37.33081 -11.729198z" fill-rule="evenodd"/><path fill="#ee9999" d="m1414.1707 57.192318l29.58496 9.307117l7.6992188 0l-37.28418 -11.729198z" fill-rule="evenodd"/><path stroke="#ee9999" stroke-width="1.0" stroke-linejoin="round" stroke-linecap="butt" d="m1414.1707 57.192318l29.58496 9.307117l7.6992188 0l-37.28418 -11.729198z" fill-rule="evenodd"/><path fill="#ee9999" d="m1464.7572 67.808l-22.955566 21.45404l-3.9693604 6.831711l28.929443 -27.037231z" fill-rule="evenodd"/><path stroke="#ee9999" stroke-width="1.0" stroke-linejoin="round" stroke-linecap="butt" d="m1464.7572 67.808l-22.955566 21.45404l-3.9693604 6.831711l28.929443 -27.037231z" fill-rule="evenodd"/><path fill="#ee9999" d="m1411.0793 67.74852l22.80542 21.578949l3.9476318 6.8449783l-28.740356 -27.194649z" fill-rule="evenodd"/><path stroke="#ee9999" stroke-width="1.0" stroke-linejoin="round" stroke-linecap="butt" d="m1411.0793 67.74852l22.80542 21.578949l3.9476318 6.8449783l-28.740356 -27.194649z" fill-rule="evenodd"/><path fill="#ee9999" d="m1414.4858 54.816017l2.2181396 0.88988876l-5.3391113 14.267147l-2.2182617 -0.88988495z" fill-rule="evenodd"/><path stroke="#ee9999" stroke-width="1.0" stroke-linejoin="round" stroke-linecap="butt" d="m1414.4858 54.816017l2.2181396 0.88988876l-5.3391113 14.267147l-2.2182617 -0.88988495z" fill-rule="evenodd"/><path fill="#ee9999" d="m1459.0494 55.75402l2.2088623 -0.91880035l5.503662 14.199684l-2.2088623 0.91880035z" fill-rule="evenodd"/><path stroke="#ee9999" stroke-width="1.0" stroke-linejoin="round" stroke-linecap="butt" d="m1459.0494 55.75402l2.2088623 -0.91880035l5.503662 14.199684l-2.2088623 0.91880035z" fill-rule="evenodd"/></g></svg>